<svg xmlns="http://www.w3.org/2000/svg" width="600" height="1036" viewBox="0 0 600 1036">
<defs>
  <linearGradient id="bg" x1="0" y1="0" x2="0" y2="1"><stop offset="0" stop-color="#261D47"/><stop offset="1" stop-color="#110C20"/></linearGradient>
  <radialGradient id="glow" cx="0.5" cy="0.45" r="0.55"><stop offset="0" stop-color="#4A3B7A" stop-opacity="0.55"/><stop offset="1" stop-color="#110C20" stop-opacity="0"/></radialGradient>
  <clipPath id="field"><rect x="42" y="130" width="516" height="776"/></clipPath>
</defs>
<rect width="600" height="1036" fill="url(#bg)"/>
<rect x="42" y="130" width="516" height="776" fill="url(#glow)"/>
<g clip-path="url(#field)"><rect x="42" y="720" width="516" height="186" fill="#4F6FA8" stroke="none" stroke-width="4"/><path d="M60 738 q30 -8 60 0 t60 0 t60 0 t60 0 t60 0 t60 0 t60 0 t60 0" fill="none" stroke="#7D9BCB" stroke-width="2" stroke-linejoin="round" stroke-linecap="round"/><path d="M60 760 q30 -8 60 0 t60 0 t60 0 t60 0 t60 0 t60 0 t60 0 t60 0" fill="none" stroke="#7D9BCB" stroke-width="2" stroke-linejoin="round" stroke-linecap="round"/><path d="M60 782 q30 -8 60 0 t60 0 t60 0 t60 0 t60 0 t60 0 t60 0 t60 0" fill="none" stroke="#7D9BCB" stroke-width="2" stroke-linejoin="round" stroke-linecap="round"/><path d="M42 800 Q300 776 558 800 V906 H42Z" fill="#3A2F5C" stroke="#9C7F3E" stroke-width="2" stroke-linejoin="round" stroke-linecap="round"/><rect x="206" y="560" width="44" height="170" fill="#3B3650" stroke="#D8B76A" stroke-width="3"/><rect x="350" y="560" width="44" height="170" fill="#3B3650" stroke="#D8B76A" stroke-width="3"/><path d="M206 560 v-16 h11 v16 h11 v-16 h11 v16 h11 M350 560 v-16 h11 v16 h11 v-16 h11 v16 h11" fill="none" stroke="#D8B76A" stroke-width="3" stroke-linejoin="round" stroke-linecap="round"/><line x1="236" y1="720" x2="190" y2="720" stroke="#F3E2AE" stroke-width="3" stroke-linecap="round"/><line x1="242.33799245424518" y1="692.2314406964763" x2="200.8934245307339" y2="672.2727886970686" stroke="#F3E2AE" stroke-width="3" stroke-linecap="round"/><line x1="260.09665268104106" y1="669.9627851220461" x2="231.41612179553937" y2="633.9985369285166" stroke="#F3E2AE" stroke-width="3" stroke-linecap="round"/><line x1="285.7586602267958" y1="657.6046136203634" x2="275.5226972648053" y2="612.7579296599994" stroke="#F3E2AE" stroke-width="3" stroke-linecap="round"/><line x1="314.2413397732041" y1="657.6046136203632" x2="324.47730273519454" y2="612.7579296599994" stroke="#F3E2AE" stroke-width="3" stroke-linecap="round"/><line x1="339.90334731895894" y1="669.9627851220461" x2="368.5838782044607" y2="633.9985369285167" stroke="#F3E2AE" stroke-width="3" stroke-linecap="round"/><line x1="357.6620075457548" y1="692.2314406964763" x2="399.1065754692661" y2="672.2727886970686" stroke="#F3E2AE" stroke-width="3" stroke-linecap="round"/><line x1="364" y1="720" x2="410" y2="720" stroke="#F3E2AE" stroke-width="3" stroke-linecap="round"/><line x1="357.6620075457548" y1="747.7685593035237" x2="399.1065754692661" y2="767.7272113029313" stroke="#F3E2AE" stroke-width="3" stroke-linecap="round"/><line x1="339.90334731895894" y1="770.0372148779539" x2="368.5838782044607" y2="806.0014630714833" stroke="#F3E2AE" stroke-width="3" stroke-linecap="round"/><line x1="314.2413397732041" y1="782.3953863796366" x2="324.4773027351946" y2="827.2420703400006" stroke="#F3E2AE" stroke-width="3" stroke-linecap="round"/><line x1="285.7586602267959" y1="782.3953863796368" x2="275.52269726480546" y2="827.2420703400006" stroke="#F3E2AE" stroke-width="3" stroke-linecap="round"/><line x1="260.09665268104106" y1="770.0372148779539" x2="231.41612179553934" y2="806.0014630714833" stroke="#F3E2AE" stroke-width="3" stroke-linecap="round"/><line x1="242.33799245424524" y1="747.7685593035238" x2="200.893424530734" y2="767.7272113029317" stroke="#F3E2AE" stroke-width="3" stroke-linecap="round"/><path d="M236 720 A64 64 0 0 1 364 720Z" fill="#F3E2AE" stroke="#D8B76A" stroke-width="2" stroke-linejoin="round" stroke-linecap="round"/><line x1="130" y1="230" x2="130" y2="640" stroke="#EDE4D0" stroke-width="8" stroke-linecap="round"/><path d="M134 250 h230 q-24 70 0 140 h-230z" fill="#0E0B16" stroke="#D8B76A" stroke-width="3" stroke-linejoin="round" stroke-linecap="round"/><circle cx="240" cy="296.9" r="21" fill="#EDE4D0" stroke="#9C7F3E" stroke-width="1.5"/><circle cx="261.96940552641803" cy="312.8617074299387" r="21" fill="#EDE4D0" stroke="#9C7F3E" stroke-width="1.5"/><circle cx="253.57783932795613" cy="338.68829257006126" r="21" fill="#EDE4D0" stroke="#9C7F3E" stroke-width="1.5"/><circle cx="226.42216067204387" cy="338.68829257006126" r="21" fill="#EDE4D0" stroke="#9C7F3E" stroke-width="1.5"/><circle cx="218.03059447358194" cy="312.8617074299387" r="21" fill="#EDE4D0" stroke="#9C7F3E" stroke-width="1.5"/><circle cx="240" cy="320" r="12.600000000000001" fill="#D8B76A" stroke="none" stroke-width="4"/><g transform="rotate(-20 440 840)"><path d="M400 860 l8 -40 l20 22 l12 -32 l12 32 l20 -22 l8 40z" fill="#D8B76A" stroke="#9C7F3E" stroke-width="2" stroke-linejoin="round" stroke-linecap="round"/></g></g>
<rect x="18" y="18" width="564" height="1000" rx="22" fill="none" stroke="#D8B76A" stroke-width="4"/>
<rect x="42" y="42" width="516" height="952" rx="10" fill="none" stroke="#9C7F3E" stroke-width="2"/>
<line x1="42" y1="130" x2="558" y2="130" stroke="#9C7F3E" stroke-width="2"/>
<line x1="42" y1="906" x2="558" y2="906" stroke="#9C7F3E" stroke-width="2"/>
</svg>