<svg xmlns="http://www.w3.org/2000/svg" width="600" height="1036" viewBox="0 0 600 1036">
<defs>
  <linearGradient id="bg" x1="0" y1="0" x2="0" y2="1"><stop offset="0" stop-color="#261D47"/><stop offset="1" stop-color="#110C20"/></linearGradient>
  <radialGradient id="glow" cx="0.5" cy="0.45" r="0.55"><stop offset="0" stop-color="#4A3B7A" stop-opacity="0.55"/><stop offset="1" stop-color="#110C20" stop-opacity="0"/></radialGradient>
  <clipPath id="field"><rect x="42" y="130" width="516" height="776"/></clipPath>
</defs>
<rect width="600" height="1036" fill="url(#bg)"/>
<rect x="42" y="130" width="516" height="776" fill="url(#glow)"/>
<g clip-path="url(#field)"><circle cx="100" cy="210" r="36" fill="#3A2F5C" stroke="none" stroke-width="4"/><circle cx="67.6" cy="219" r="27" fill="#3A2F5C" stroke="none" stroke-width="4"/><circle cx="132.4" cy="219" r="27" fill="#3A2F5C" stroke="none" stroke-width="4"/><circle cx="83.8" cy="197.4" r="25.2" fill="#3A2F5C" stroke="none" stroke-width="4"/><circle cx="116.2" cy="199.2" r="25.919999999999998" fill="#3A2F5C" stroke="none" stroke-width="4"/><circle cx="100" cy="210" r="28" fill="#EDE4D0" stroke="#F3E2AE" stroke-width="3"/><circle cx="500" cy="210" r="36" fill="#3A2F5C" stroke="none" stroke-width="4"/><circle cx="467.6" cy="219" r="27" fill="#3A2F5C" stroke="none" stroke-width="4"/><circle cx="532.4" cy="219" r="27" fill="#3A2F5C" stroke="none" stroke-width="4"/><circle cx="483.8" cy="197.4" r="25.2" fill="#3A2F5C" stroke="none" stroke-width="4"/><circle cx="516.2" cy="199.2" r="25.919999999999998" fill="#3A2F5C" stroke="none" stroke-width="4"/><circle cx="500" cy="210" r="28" fill="#D8B76A" stroke="#F3E2AE" stroke-width="3"/><circle cx="100" cy="830" r="36" fill="#3A2F5C" stroke="none" stroke-width="4"/><circle cx="67.6" cy="839" r="27" fill="#3A2F5C" stroke="none" stroke-width="4"/><circle cx="132.4" cy="839" r="27" fill="#3A2F5C" stroke="none" stroke-width="4"/><circle cx="83.8" cy="817.4" r="25.2" fill="#3A2F5C" stroke="none" stroke-width="4"/><circle cx="116.2" cy="819.2" r="25.919999999999998" fill="#3A2F5C" stroke="none" stroke-width="4"/><circle cx="100" cy="830" r="28" fill="#8C6A4A" stroke="#F3E2AE" stroke-width="3"/><circle cx="500" cy="830" r="36" fill="#3A2F5C" stroke="none" stroke-width="4"/><circle cx="467.6" cy="839" r="27" fill="#3A2F5C" stroke="none" stroke-width="4"/><circle cx="532.4" cy="839" r="27" fill="#3A2F5C" stroke="none" stroke-width="4"/><circle cx="483.8" cy="817.4" r="25.2" fill="#3A2F5C" stroke="none" stroke-width="4"/><circle cx="516.2" cy="819.2" r="25.919999999999998" fill="#3A2F5C" stroke="none" stroke-width="4"/><circle cx="500" cy="830" r="28" fill="#C98B3C" stroke="#F3E2AE" stroke-width="3"/><ellipse cx="300" cy="520" rx="150" ry="270" fill="none" stroke="#5B7F52" stroke-width="22"/><ellipse cx="450" cy="520" rx="12" ry="5" fill="#3D5A3A" stroke="none" stroke-width="4" transform="rotate(45 450 520)"/><ellipse cx="447.72116295183116" cy="566.8850079700712" rx="12" ry="5" fill="#3D5A3A" stroke="none" stroke-width="4" transform="rotate(55 447.7 566.9)"/><ellipse cx="440.95389311788625" cy="612.3454386979306" rx="12" ry="5" fill="#3D5A3A" stroke="none" stroke-width="4" transform="rotate(65 441 612.3)"/><ellipse cx="429.9038105676658" cy="655" rx="12" ry="5" fill="#3D5A3A" stroke="none" stroke-width="4" transform="rotate(75 429.9 655)"/><ellipse cx="414.9066664678467" cy="693.5526546153656" rx="12" ry="5" fill="#3D5A3A" stroke="none" stroke-width="4" transform="rotate(85 414.9 693.6)"/><ellipse cx="396.4181414529809" cy="726.8319996421241" rx="12" ry="5" fill="#3D5A3A" stroke="none" stroke-width="4" transform="rotate(95 396.4 726.8)"/><ellipse cx="375" cy="753.8268590217984" rx="12" ry="5" fill="#3D5A3A" stroke="none" stroke-width="4" transform="rotate(105 375 753.8)"/><ellipse cx="351.30302149885034" cy="773.7170076121952" rx="12" ry="5" fill="#3D5A3A" stroke="none" stroke-width="4" transform="rotate(115 351.3 773.7)"/><ellipse cx="326.04722665003953" cy="785.8980933132962" rx="12" ry="5" fill="#3D5A3A" stroke="none" stroke-width="4" transform="rotate(125 326 785.9)"/><ellipse cx="300" cy="790" rx="12" ry="5" fill="#3D5A3A" stroke="none" stroke-width="4" transform="rotate(135 300 790)"/><ellipse cx="273.95277334996047" cy="785.8980933132962" rx="12" ry="5" fill="#3D5A3A" stroke="none" stroke-width="4" transform="rotate(145 274 785.9)"/><ellipse cx="248.6969785011497" cy="773.7170076121953" rx="12" ry="5" fill="#3D5A3A" stroke="none" stroke-width="4" transform="rotate(155 248.7 773.7)"/><ellipse cx="225.00000000000003" cy="753.8268590217984" rx="12" ry="5" fill="#3D5A3A" stroke="none" stroke-width="4" transform="rotate(165 225 753.8)"/><ellipse cx="203.5818585470191" cy="726.8319996421241" rx="12" ry="5" fill="#3D5A3A" stroke="none" stroke-width="4" transform="rotate(175 203.6 726.8)"/><ellipse cx="185.0933335321533" cy="693.5526546153657" rx="12" ry="5" fill="#3D5A3A" stroke="none" stroke-width="4" transform="rotate(185 185.1 693.6)"/><ellipse cx="170.0961894323342" cy="655" rx="12" ry="5" fill="#3D5A3A" stroke="none" stroke-width="4" transform="rotate(195 170.1 655)"/><ellipse cx="159.04610688211375" cy="612.3454386979306" rx="12" ry="5" fill="#3D5A3A" stroke="none" stroke-width="4" transform="rotate(205 159 612.3)"/><ellipse cx="152.2788370481688" cy="566.8850079700712" rx="12" ry="5" fill="#3D5A3A" stroke="none" stroke-width="4" transform="rotate(215 152.3 566.9)"/><ellipse cx="150" cy="520" rx="12" ry="5" fill="#3D5A3A" stroke="none" stroke-width="4" transform="rotate(225 150 520)"/><ellipse cx="152.2788370481688" cy="473.11499202992877" rx="12" ry="5" fill="#3D5A3A" stroke="none" stroke-width="4" transform="rotate(235 152.3 473.1)"/><ellipse cx="159.04610688211375" cy="427.65456130206945" rx="12" ry="5" fill="#3D5A3A" stroke="none" stroke-width="4" transform="rotate(245 159 427.7)"/><ellipse cx="170.0961894323342" cy="385" rx="12" ry="5" fill="#3D5A3A" stroke="none" stroke-width="4" transform="rotate(255 170.1 385)"/><ellipse cx="185.09333353215328" cy="346.4473453846344" rx="12" ry="5" fill="#3D5A3A" stroke="none" stroke-width="4" transform="rotate(265 185.1 346.4)"/><ellipse cx="203.58185854701907" cy="313.16800035787594" rx="12" ry="5" fill="#3D5A3A" stroke="none" stroke-width="4" transform="rotate(275 203.6 313.2)"/><ellipse cx="224.99999999999994" cy="286.1731409782016" rx="12" ry="5" fill="#3D5A3A" stroke="none" stroke-width="4" transform="rotate(285 225 286.2)"/><ellipse cx="248.6969785011496" cy="266.2829923878048" rx="12" ry="5" fill="#3D5A3A" stroke="none" stroke-width="4" transform="rotate(295 248.7 266.3)"/><ellipse cx="273.95277334996047" cy="254.10190668670384" rx="12" ry="5" fill="#3D5A3A" stroke="none" stroke-width="4" transform="rotate(305 274 254.1)"/><ellipse cx="300" cy="250" rx="12" ry="5" fill="#3D5A3A" stroke="none" stroke-width="4" transform="rotate(315 300 250)"/><ellipse cx="326.0472266500395" cy="254.10190668670378" rx="12" ry="5" fill="#3D5A3A" stroke="none" stroke-width="4" transform="rotate(325 326 254.1)"/><ellipse cx="351.3030214988502" cy="266.2829923878047" rx="12" ry="5" fill="#3D5A3A" stroke="none" stroke-width="4" transform="rotate(335 351.3 266.3)"/><ellipse cx="375" cy="286.17314097820156" rx="12" ry="5" fill="#3D5A3A" stroke="none" stroke-width="4" transform="rotate(345 375 286.2)"/><ellipse cx="396.4181414529809" cy="313.16800035787594" rx="12" ry="5" fill="#3D5A3A" stroke="none" stroke-width="4" transform="rotate(355 396.4 313.2)"/><ellipse cx="414.90666646784666" cy="346.44734538463433" rx="12" ry="5" fill="#3D5A3A" stroke="none" stroke-width="4" transform="rotate(365 414.9 346.4)"/><ellipse cx="429.90381056766574" cy="384.9999999999999" rx="12" ry="5" fill="#3D5A3A" stroke="none" stroke-width="4" transform="rotate(375 429.9 385)"/><ellipse cx="440.95389311788625" cy="427.6545613020695" rx="12" ry="5" fill="#3D5A3A" stroke="none" stroke-width="4" transform="rotate(385 441 427.7)"/><ellipse cx="447.72116295183116" cy="473.11499202992854" rx="12" ry="5" fill="#3D5A3A" stroke="none" stroke-width="4" transform="rotate(395 447.7 473.1)"/><path d="M270 230 L330 270 M330 230 L270 270" fill="none" stroke="#A9483A" stroke-width="10" stroke-linejoin="round" stroke-linecap="round"/><path d="M270 770 L330 810 M330 770 L270 810" fill="none" stroke="#A9483A" stroke-width="10" stroke-linejoin="round" stroke-linecap="round"/><circle cx="300" cy="390" r="30" fill="#EDE4D0" stroke="#D8B76A" stroke-width="3"/><path d="M300 430 C220 480 380 540 300 600 C230 650 360 690 310 740" fill="none" stroke="#6B4E9B" stroke-width="26" stroke-linejoin="round" stroke-linecap="round"/><line x1="220" y1="560" x2="250" y2="470" stroke="#6A4A35" stroke-width="9" stroke-linecap="round"/><circle cx="250" cy="470" r="6" fill="#5B7F52" stroke="none" stroke-width="4"/><circle cx="220" cy="560" r="5" fill="#5B7F52" stroke="none" stroke-width="4"/><line x1="380" y1="560" x2="350" y2="470" stroke="#6A4A35" stroke-width="9" stroke-linecap="round"/><circle cx="350" cy="470" r="6" fill="#5B7F52" stroke="none" stroke-width="4"/><circle cx="380" cy="560" r="5" fill="#5B7F52" stroke="none" stroke-width="4"/></g>
<rect x="18" y="18" width="564" height="1000" rx="22" fill="none" stroke="#D8B76A" stroke-width="4"/>
<rect x="42" y="42" width="516" height="952" rx="10" fill="none" stroke="#9C7F3E" stroke-width="2"/>
<line x1="42" y1="130" x2="558" y2="130" stroke="#9C7F3E" stroke-width="2"/>
<line x1="42" y1="906" x2="558" y2="906" stroke="#9C7F3E" stroke-width="2"/>
</svg>